<svg width="1000" height="1000" viewBox="0 0 1000 1000" fill="none" xmlns="http://www.w3.org/2000/svg">
<rect width="1000" height="1000" rx="50" fill="white"/>
<path d="M616.015 361.54C613.48 335.975 602.599 316.115 583.372 301.959C564.146 287.803 538.053 280.725 505.093 280.725C482.697 280.725 463.788 283.894 448.364 290.233C432.941 296.36 421.109 304.917 412.869 315.903C404.841 326.89 400.826 339.355 400.826 353.3C400.404 364.92 402.833 375.062 408.116 383.724C413.609 392.387 421.109 399.887 430.617 406.226C440.124 412.353 451.111 417.74 463.577 422.389C476.042 426.825 489.353 430.629 503.509 433.798L561.822 447.742C590.133 454.081 616.121 462.532 639.784 473.096C663.448 483.66 683.942 496.654 701.267 512.077C718.592 527.501 732.008 545.671 741.516 566.587C751.235 587.504 756.2 611.484 756.411 638.528C756.2 678.249 746.058 712.688 725.987 741.844C706.126 770.79 677.392 793.291 639.784 809.348C602.388 825.194 557.279 833.117 504.459 833.117C452.062 833.117 406.425 825.089 367.55 809.031C328.885 792.974 298.672 769.205 276.91 737.724C255.36 706.032 244.056 666.84 243 620.147H375.79C377.269 641.909 383.501 660.079 394.488 674.657C405.686 689.024 420.581 699.905 439.174 707.3C457.978 714.484 479.211 718.075 502.875 718.075C526.116 718.075 546.293 714.695 563.406 707.934C580.731 701.173 594.148 691.771 603.655 679.728C613.163 667.685 617.917 653.846 617.917 638.211C617.917 623.633 613.586 611.379 604.923 601.449C596.472 591.518 584.006 583.067 567.526 576.095C551.258 569.123 531.292 562.784 507.629 557.08L436.955 539.332C382.234 526.022 339.027 505.21 307.335 476.899C275.643 448.587 259.902 410.451 260.114 362.491C259.902 323.192 270.361 288.859 291.489 259.492C312.828 230.124 342.09 207.2 379.276 190.72C416.461 174.24 458.717 166 506.044 166C554.216 166 596.261 174.24 632.178 190.72C668.307 207.2 696.407 230.124 716.479 259.492C736.551 288.859 746.903 322.876 747.537 361.54H616.015Z" fill="#4F46E5"/>
</svg>